<svg xmlns="http://www.w3.org/2000/svg" viewBox="0 0 512 512" role="img" aria-label="PhysioPipeline">
  <defs>
    <radialGradient id="physioBlue" cx="34%" cy="24%" r="78%">
      <stop offset="0" stop-color="#4FE1FF"/>
      <stop offset="0.42" stop-color="#1687FF"/>
      <stop offset="1" stop-color="#004DFF"/>
    </radialGradient>
    <clipPath id="blueSphereClip">
      <circle cx="256" cy="256" r="210"/>
    </clipPath>
    <filter id="softHighlight" x="-20%" y="-20%" width="140%" height="140%">
      <feGaussianBlur stdDeviation="1.15"/>
    </filter>
  </defs>

  <circle cx="256" cy="256" r="248" fill="#ffffff"/>
  <circle cx="256" cy="256" r="210" fill="url(#physioBlue)"/>
  <g clip-path="url(#blueSphereClip)">
    <path
      d="M 111 166 C 158 105 251 82 329 116"
      fill="none"
      stroke="#ffffff"
      stroke-width="24"
      stroke-linecap="round"
      opacity="0.4"
      filter="url(#softHighlight)"
    />
  </g>

  <g transform="translate(256 256) scale(0.92) translate(-301 -213)">
    <path
      fill="#00245f"
      opacity="0.55"
      transform="translate(7 10)"
      d="
      M 184 356
      C 190 314 209 281 240 255
      C 261 237 289 225 318 212
      C 352 197 369 177 369 150
      C 369 115 337 93 288 93
      C 254 93 219 99 183 111
      L 188 66
      C 224 55 259 50 293 50
      C 371 50 421 88 421 148
      C 421 199 391 234 331 260
      C 287 279 257 296 241 314
      C 226 331 216 351 211 376
      L 181 376
      Z

      M 239 376
      L 213 376
      L 222 335
      C 232 326 245 317 260 308
      Z

      M 248 262
      L 290 106
      L 337 106
      L 303 239
      Z
    "/>
    <path
      fill="#111111"
      d="
      M 184 356
      C 190 314 209 281 240 255
      C 261 237 289 225 318 212
      C 352 197 369 177 369 150
      C 369 115 337 93 288 93
      C 254 93 219 99 183 111
      L 188 66
      C 224 55 259 50 293 50
      C 371 50 421 88 421 148
      C 421 199 391 234 331 260
      C 287 279 257 296 241 314
      C 226 331 216 351 211 376
      L 181 376
      Z

      M 239 376
      L 213 376
      L 222 335
      C 232 326 245 317 260 308
      Z

      M 248 262
      L 290 106
      L 337 106
      L 303 239
      Z
    "/>
  </g>
</svg>
