<svg xmlns="http://www.w3.org/2000/svg" viewBox="0 0 1024 1024" role="img" aria-label="PhysioPipeline">
  <defs>
    <radialGradient id="blue" cx="38%" cy="30%" r="78%">
      <stop offset="0" stop-color="#38d5ff"/>
      <stop offset="0.46" stop-color="#0878ff"/>
      <stop offset="1" stop-color="#0052ff"/>
    </radialGradient>
  </defs>
  <circle cx="512" cy="512" r="504" fill="#ffffff"/>
  <circle cx="512" cy="512" r="442" fill="url(#blue)"/>
  <path
    fill="#111111"
    transform="translate(512 512) scale(0.85) translate(-512 -512)"
    d="M320 805c20-142 88-252 206-332 50-34 102-60 156-84 60-28 90-64 90-112 0-62-58-102-146-102-80 0-168 16-264 46l8-90c90-28 178-42 264-42 150 0 246 72 246 182 0 96-56 164-168 212-130 56-210 104-254 146-46 44-76 102-90 176h-48Zm174 0h-78l18-94c22-22 54-46 96-72l-36 166Zm2-292 80-300h108l-66 262-122 38Z"
  />
</svg>
